<?xml version="1.0" encoding="utf-8"?>
<!-- Generator: Adobe Illustrator 22.1.0, SVG Export Plug-In . SVG Version: 6.00 Build 0)  -->
<svg version="1.1" baseProfile="tiny" id="Layer_1" xmlns="http://www.w3.org/2000/svg" xmlns:xlink="http://www.w3.org/1999/xlink"
	 x="0px" y="0px" width="149px" height="116.5px" viewBox="0 0 149 116.5" xml:space="preserve">
<g>
	<path fill="#1D376A" d="M0.5,27.1L5.9,27c17.4,0,33.9,6.7,45.2,14.4C55,44.1,60,48,63.3,51.5c5.9,6.2,4.5,7.4,15,4.5
		c1.7-0.4,10.9-2.9,11.7-3.3l-10.8-7.3c-3.6-2.4-7.4-4.7-11.2-7c-7-4.2-10.9-5.9-18.1-9.1c-2.1-0.9-4.7-1.6-6.6-2.6
		c4.5,0.2,11.6,2.7,15.5,4.1c2.4,0.9,4.7,1.9,6.9,3c2.2,1.1,4.5,2.2,6.5,3.4l6.2,3.6c3.7,2.1,8.4,5.6,12.1,7.8
		c2.2,1.3,4.9,2.1,8.2,1.7c4.6-0.6,16.8-6.2,21.1-8.5c7.4-3.9,14.8-8.3,21-13.7c1.8-1.6,6.5-5.6,7.6-7.4l-4.1,3.1
		C133.2,32,120.6,36,106,36c-19.8,0-39.2-8.7-54.4-15.8c-3.8-1.8-8-3.9-12.2-5.3c-2.9-1-4.3-1.3-7.2-0.2
		c-9.3,3.6-19.3,7.6-28.5,11.1C2.8,26.1,1.2,26.7,0.5,27.1"/>
	<path fill="#1D376A" d="M0,98.6h3.4V74.4c0.7,0.3,2.3,2.3,2.8,3c1,1.2,1.7,2,2.7,3.1l10.8,12.4c0.9,1,1.8,2.1,2.7,3.1
		c0.6,0.6,0.9,1,1.4,1.6c0.6,0.7,0.7,1.2,1.8,1.1V66.6l-3.2-0.1L22.3,91c-2.7-2.8-5.5-6.3-8.2-9.2c-4-4.4-8.5-9.9-12.4-14.1
		C1.2,67,1,66.5,0.1,66.4L0,98.6z"/>
	<path fill="#1D376A" d="M97.9,79.1c-1.1-0.8-2.1-2.9-5.5-4.1c-11.2-3.9-21,9.1-14.1,19c3,4.3,8.4,6.4,13.7,4.7
		c3.6-1.1,5-3.5,5.9-3.9v3.8h3.1V65.8h-3.1V79.1z M79.2,87.7c-0.5-5.4,3.7-9.9,8.5-10.3c12.7-1.1,14,18.1,1.8,19.1
		C84,96.8,79.8,92.7,79.2,87.7z"/>
	<path fill="#1D376A" d="M49,94.8v3.8h3.1V74.9H49v4.2c-0.5-0.4-0.7-0.8-1.1-1.2c-3.1-3.5-8.7-4.5-12.9-2.8
		c-10.9,4.5-9.9,19.3-0.3,23.2c3.8,1.6,8.2,1,11.6-1.3C47.4,96.4,48.3,95.2,49,94.8 M30.4,87.7c-0.5-5.4,3.6-9.9,8.5-10.4
		c12.7-1.1,14,18.1,1.8,19.1C35.2,96.8,30.9,92.7,30.4,87.7z"/>
	<path fill="#1D376A" d="M123.7,94.7v3.9h3.1V74.9h-3.1v4.2c-1.6-1.6-2.7-3.2-5.5-4.2c-7.5-2.6-16.3,2.8-16.3,11.6
		c0,9,8.3,14.5,15.9,12.1C121.6,97.5,122.7,95.3,123.7,94.7 M105.1,88c-0.8-5.6,3.3-10,8.1-10.7c5.8-0.8,10.1,3.5,10.6,8.4
		C125.1,98.6,106.8,100.3,105.1,88z"/>
	<path fill="#1D376A" d="M131.2,78.9v-4.1h-3.1v23.8h3.1c0-4.3-0.3-10.2,0.3-14.2c1-6.9,9-9.2,12.6-5.7c2.5,2.5,1.9,8.6,1.9,12.6
		c0,2.3,0.1,5,0,7.3h3.1c-0.2-3.8,0-7.9,0-11.7c0-3.7-0.2-7.2-2.2-9.6c-3.2-3.8-8.6-4-12.6-1.3C132.8,77,132.2,78.1,131.2,78.9"/>
	<path fill="#1D376A" d="M57.2,79v-4.1h-3c-0.3,1.1-0.1,21-0.1,23.8h3.1c-0.1-4-0.3-10.5,0.2-14.3c0.5-3.7,3.5-6.8,7.2-7.3
		c5-0.6,6.8,2.5,7.1,7.1c0.3,4.7,0,9.7,0.1,14.5h3.1c-0.1-3.9,0-7.8,0-11.7c0-3.7-0.1-7-2.1-9.5c-1.6-2-4.3-3.7-8.3-3.1
		C60.5,75,59.2,77.1,57.2,79"/>
	<path fill="#1D376A" d="M137.8,108.7h1v1.3c0.3-0.5,0.7-0.8,1-1c0.5-0.3,1-0.4,1.5-0.4c0.4,0,0.7,0.1,1,0.2s0.6,0.3,0.8,0.6
		c0.2,0.2,0.4,0.6,0.5,1c0.3-0.6,0.7-1,1.2-1.3s1-0.5,1.6-0.5c0.5,0,1,0.1,1.4,0.4s0.7,0.6,0.9,1.1s0.3,1.2,0.3,2.1v4.1h-1v-4.1
		c0-0.8-0.1-1.4-0.2-1.7c-0.1-0.3-0.3-0.5-0.6-0.7s-0.6-0.3-1-0.3c-0.5,0-0.9,0.1-1.3,0.4c-0.4,0.3-0.7,0.6-0.8,1.1
		c-0.2,0.5-0.3,1.2-0.3,2.3v2.9h-1v-3.8c0-0.9-0.1-1.5-0.2-1.8c-0.1-0.3-0.3-0.6-0.6-0.8c-0.3-0.2-0.6-0.3-1-0.3s-0.9,0.1-1.3,0.4
		c-0.4,0.3-0.7,0.6-0.9,1.1s-0.3,1.1-0.3,2.1v3.2h-1v-7.6H137.8z M134.9,108.7h1v7.5h-1V108.7z M135.4,105.6c0.2,0,0.4,0.1,0.6,0.2
		c0.2,0.2,0.2,0.3,0.2,0.6c0,0.2-0.1,0.4-0.2,0.6c-0.2,0.2-0.3,0.2-0.6,0.2c-0.2,0-0.4-0.1-0.6-0.2c-0.2-0.2-0.2-0.3-0.2-0.6
		c0-0.2,0.1-0.4,0.2-0.6C135,105.7,135.1,105.6,135.4,105.6z M126.4,108.7h1v1.3c0.4-0.5,0.8-0.9,1.3-1.1c0.5-0.3,1-0.4,1.5-0.4
		c0.6,0,1.1,0.1,1.5,0.4s0.8,0.7,1,1.1c0.2,0.5,0.3,1.2,0.3,2.2v3.8h-1v-3.6c0-0.9,0-1.4-0.1-1.7c-0.1-0.5-0.3-0.9-0.7-1.1
		c-0.3-0.2-0.7-0.4-1.2-0.4c-0.6,0-1.1,0.2-1.6,0.6s-0.8,0.9-0.9,1.4c-0.1,0.4-0.1,1-0.1,2v2.7h-1
		C126.4,115.9,126.4,108.7,126.4,108.7z M123.6,111.7c-0.1-0.5-0.3-0.9-0.6-1.2c-0.2-0.3-0.6-0.6-1-0.7c-0.4-0.2-0.8-0.3-1.3-0.3
		c-0.7,0-1.4,0.2-1.9,0.7c-0.4,0.3-0.7,0.9-0.9,1.5H123.6z M123.6,113.7l0.8,0.4c-0.3,0.5-0.6,0.9-0.9,1.3c-0.4,0.3-0.7,0.6-1.2,0.7
		c-0.4,0.2-0.9,0.2-1.5,0.2c-1.2,0-2.2-0.4-2.9-1.2c-0.7-0.8-1-1.7-1-2.7c0-0.9,0.3-1.8,0.9-2.5c0.7-0.9,1.7-1.4,3-1.4
		s2.3,0.5,3.1,1.4c0.5,0.7,0.8,1.5,0.8,2.6h-6.8c0,0.9,0.3,1.6,0.8,2.1c0.5,0.6,1.2,0.8,2,0.8c0.4,0,0.8-0.1,1.1-0.2
		c0.4-0.1,0.7-0.3,0.9-0.5C123,114.6,123.3,114.2,123.6,113.7z M111.2,109.5c-0.5,0-1,0.1-1.5,0.4s-0.8,0.6-1.1,1.1s-0.4,1-0.4,1.5
		s0.1,1,0.4,1.5s0.6,0.9,1.1,1.1c0.5,0.3,0.9,0.4,1.5,0.4c0.5,0,1-0.1,1.5-0.4s0.8-0.6,1.1-1.1c0.3-0.5,0.4-1,0.4-1.5
		c0-0.9-0.3-1.6-0.9-2.2C112.7,109.8,112,109.5,111.2,109.5z M115.1,105.8v10.4h-1v-1.3c-0.4,0.5-0.9,0.9-1.4,1.1s-1.1,0.4-1.6,0.4
		c-1.1,0-2-0.4-2.7-1.1c-0.7-0.8-1.1-1.7-1.1-2.8c0-1.1,0.4-2,1.1-2.8c0.8-0.8,1.7-1.1,2.7-1.1c0.6,0,1.2,0.1,1.7,0.4
		s0.9,0.7,1.3,1.2v-4.3L115.1,105.8L115.1,105.8z M95.1,105.8h1v4.2c0.4-0.5,0.8-0.9,1.3-1.2c0.5-0.3,1-0.4,1.5-0.4
		c0.6,0,1.1,0.1,1.5,0.4s0.8,0.7,1,1.1c0.2,0.5,0.3,1.2,0.3,2.3v3.8h-1v-3.6c0-0.9,0-1.4-0.1-1.7c-0.1-0.5-0.3-0.9-0.7-1.1
		c-0.3-0.2-0.7-0.4-1.2-0.4c-0.6,0-1.1,0.2-1.6,0.6s-0.8,0.9-0.9,1.4c-0.1,0.4-0.1,1-0.1,2v2.7h-1L95.1,105.8L95.1,105.8z
		 M91.2,105.9h1v2.8h1.5v0.8h-1.5v6.7h-1v-6.7h-1.3v-0.8h1.3V105.9z M87.4,108.7h1v7.5h-1V108.7z M87.8,105.6c0.2,0,0.4,0.1,0.6,0.2
		c0.2,0.2,0.2,0.3,0.2,0.6c0,0.2-0.1,0.4-0.2,0.6c-0.2,0.2-0.3,0.2-0.6,0.2c-0.2,0-0.4-0.1-0.6-0.2c-0.2-0.2-0.2-0.3-0.2-0.6
		c0-0.2,0.1-0.4,0.2-0.6C87.4,105.7,87.6,105.6,87.8,105.6z M74.8,108.7h1l2.3,5.4l2.4-5.4h0.2l2.4,5.4l2.3-5.4h1l-3.2,7.5H83
		l-2.4-5.4l-2.4,5.4H78L74.8,108.7z M65.8,109.5c-0.5,0-1,0.1-1.5,0.4s-0.8,0.6-1.1,1.1s-0.4,1-0.4,1.5s0.1,1,0.4,1.5
		c0.3,0.5,0.6,0.9,1.1,1.1c0.5,0.3,0.9,0.4,1.5,0.4c0.5,0,1-0.1,1.5-0.4s0.8-0.6,1.1-1.1c0.3-0.5,0.4-1,0.4-1.5
		c0-0.9-0.3-1.6-0.9-2.2C67.4,109.8,66.7,109.5,65.8,109.5z M69.7,105.8v10.4h-1v-1.3c-0.4,0.5-0.9,0.9-1.4,1.1s-1.1,0.4-1.6,0.4
		c-1.1,0-2-0.4-2.7-1.1c-0.7-0.8-1.1-1.7-1.1-2.8c0-1.1,0.4-2,1.1-2.8c0.8-0.8,1.7-1.1,2.7-1.1c0.6,0,1.2,0.1,1.7,0.4
		s0.9,0.7,1.3,1.2v-4.3L69.7,105.8L69.7,105.8z M59.3,105.8h1v10.4h-1V105.8z M54.8,108.7h1v1.1c0.3-0.4,0.6-0.8,0.9-1
		c0.3-0.2,0.7-0.3,1-0.3s0.6,0.1,0.9,0.3l-0.5,0.8c-0.2-0.1-0.4-0.1-0.5-0.1c-0.3,0-0.6,0.1-0.9,0.4c-0.3,0.3-0.5,0.7-0.7,1.2
		c-0.1,0.4-0.2,1.3-0.2,2.6v2.5h-1V108.7z M49.5,109.5c-0.8,0-1.5,0.3-2.1,0.9s-0.9,1.3-0.9,2.1c0,0.5,0.1,1,0.4,1.5
		c0.3,0.5,0.6,0.8,1.1,1.1c0.4,0.3,0.9,0.4,1.5,0.4c0.5,0,1-0.1,1.5-0.4c0.4-0.3,0.8-0.6,1.1-1.1s0.4-1,0.4-1.5
		c0-0.8-0.3-1.6-0.9-2.1C50.9,109.8,50.3,109.5,49.5,109.5z M49.5,108.5c1.2,0,2.1,0.4,2.9,1.3c0.7,0.8,1,1.7,1,2.7s-0.4,2-1.1,2.7
		c-0.7,0.8-1.7,1.2-2.8,1.2c-1.2,0-2.1-0.4-2.8-1.2c-0.7-0.8-1.1-1.7-1.1-2.7s0.3-1.9,1-2.7C47.3,109,48.3,108.5,49.5,108.5z
		 M33.2,108.7h1l2.3,5.4l2.4-5.4H39l2.4,5.4l2.3-5.4h1l-3.2,7.5h-0.2l-2.4-5.4l-2.4,5.4h-0.2L33.2,108.7z M27.5,111.7
		c-0.1-0.5-0.3-0.9-0.6-1.2c-0.2-0.3-0.6-0.6-1-0.7c-0.4-0.2-0.8-0.3-1.3-0.3c-0.7,0-1.4,0.2-1.9,0.7c-0.4,0.3-0.7,0.9-0.9,1.5H27.5
		z M27.5,113.7l0.8,0.4c-0.3,0.5-0.6,0.9-0.9,1.3c-0.4,0.3-0.7,0.6-1.2,0.7c-0.4,0.2-0.9,0.2-1.5,0.2c-1.2,0-2.2-0.4-2.9-1.2
		c-0.7-0.8-1-1.7-1-2.7c0-0.9,0.3-1.8,0.9-2.5c0.7-0.9,1.7-1.4,3-1.4s2.3,0.5,3.1,1.4c0.5,0.7,0.8,1.5,0.8,2.6h-6.8
		c0,0.9,0.3,1.6,0.8,2.1c0.5,0.6,1.2,0.8,2,0.8c0.4,0,0.8-0.1,1.1-0.2c0.4-0.1,0.7-0.3,0.9-0.5C26.9,114.6,27.2,114.2,27.5,113.7z
		 M12.5,108.7h1v1.3c0.4-0.5,0.8-0.9,1.3-1.1c0.5-0.3,1-0.4,1.5-0.4c0.6,0,1.1,0.1,1.5,0.4s0.8,0.7,1,1.1c0.2,0.5,0.3,1.2,0.3,2.2
		v3.8h-1v-3.6c0-0.9,0-1.4-0.1-1.7c-0.1-0.5-0.3-0.9-0.7-1.1c-0.3-0.2-0.7-0.4-1.2-0.4c-0.6,0-1.1,0.2-1.6,0.6s-0.8,0.9-0.9,1.4
		c-0.1,0.4-0.1,1-0.1,2v2.7h-1C12.5,115.9,12.5,108.7,12.5,108.7z M5.3,106.8c-0.7,0-1.5,0.2-2.1,0.6c-0.7,0.4-1.2,0.9-1.6,1.6
		c-0.4,0.6-0.6,1.4-0.6,2.2c0,1.2,0.4,2.2,1.3,3c0.8,0.8,1.8,1.2,3,1.2c0.8,0,1.5-0.2,2.2-0.6s1.2-0.9,1.6-1.6
		c0.4-0.7,0.6-1.4,0.6-2.2c0-0.8-0.2-1.5-0.6-2.2c-0.4-0.6-0.9-1.2-1.6-1.6C6.8,107,6.1,106.8,5.3,106.8z M5.3,105.8
		c1.5,0,2.8,0.5,3.8,1.5s1.5,2.3,1.5,3.8s-0.5,2.7-1.5,3.8c-1,1-2.3,1.5-3.8,1.5s-2.8-0.5-3.8-1.5S0,112.6,0,111.2
		c0-1,0.2-1.9,0.7-2.7c0.5-0.8,1.1-1.5,1.9-2C3.4,106.1,4.3,105.8,5.3,105.8z"/>
</g>
</svg>
